{"title":"Naruto Shippuden Movie - Blood Prison [Xillia]","uid":9541690,"size":622638706,"categoryP":"video","categoryS":"movies","magnet":"?xt=urn:btih:e7fa83905bafa7cabf0dac5e57cc204033cc84e7&amp;dn=Naruto+Shippuden+Movie+-+Blood+Prison+%5BXillia%5D&amp;tr=udp%3A%2F%2Ftracker.openbittorrent.com%3A80&amp;tr=udp%3A%2F%2Fopen.demonii.com%3A1337&amp;tr=udp%3A%2F%2Ftracker.coppersurfer.tk%3A6969&amp;tr=udp%3A%2F%2Fexodus.desync.com%3A6969","seeders":1,"leechers":0,"uploader":"p7trick","files":-1,"time":1391058112,"description":"Naruto Blood Prison ENGLISH DUBBED\n_________________________________________________________\n\nFormat                                   : MPEG-4\nFormat profile                           : Base Media / Version 2\nCodec ID                                 : mp42\nFile size                                : 594 MiB\nDuration                                 : 1h 42mn\nOverall bit rate mode                    : Variable\nOverall bit rate                         : 808 Kbps\n\nVideo\nID                                       : 1\nFormat                                   : AVC\nFormat/Info                              : Advanced Video Codec\nFormat profile                           : &lt;a class=&quot;__cf_email__&quot; href=&quot;/cdn-cgi/l/email-protection&quot; data-cfemail=&quot;87cae6eee9c7cbb4a9b6&quot;&gt;[email&amp;#160;protected]&lt;/a&gt;&lt;script cf-hash='f9e31' type=&quot;text/javascript&quot;&gt;\n/* &lt;![CDATA[ */!function(){try{var t=&quot;currentScript&quot;in document?document.currentScript:function(){for(var t=document.getElementsByTagName(&quot;script&quot;),e=t.length;e--;)if(t[e].getAttribute(&quot;cf-hash&quot;))return t[e]}();if(t&amp;&amp;t.previousSibling){var e,r,n,i,c=t.previousSibling,a=c.getAttribute(&quot;data-cfemail&quot;);if(a){for(e=&quot;&quot;,r=parseInt(a.substr(0,2),16),n=2;a.length-n;n+=2)i=parseInt(a.substr(n,2),16)^r,e+=String.fromCharCode(i);e=document.createTextNode(e),c.parentNode.replaceChild(e,c)}}}catch(u){}}();/* ]]&gt; */&lt;/script&gt;\nFormat settings, CABAC                   : Yes\nFormat settings, ReFrames                : 3 frames\nCodec ID                                 : avc1\nCodec ID/Info                            : Advanced Video Coding\nDuration                                 : 1h 42mn\nSource duration                          : 1h 42mn\nBit rate mode                            : Variable\nBit rate                                 : 680 Kbps\nWidth                                    : 1 280 pixels\nHeight                                   : 720 pixels\nDisplay aspect ratio                     : 16:9\nFrame rate mode                          : Variable\nFrame rate                               : 30.000 fps\nMinimum frame rate                       : 30.000 fps\nMaximum frame rate                       : 30.030 fps\nStandard                                 : NTSC\nColor space                              : YUV\nChroma subsampling                       : 4:2:0\nBit depth                                : 8 bits\nScan type                                : Progressive\nBits/(Pixel*Frame)                       : 0.025\nStream size                              : 499 MiB (84%)\nSource stream size                       : 499 MiB (84%)\nLanguage                                 : English\n\nAudio\nID                                       : 2\nFormat                                   : AAC\nFormat/Info                              : Advanced Audio Codec\nFormat profile                           : LC\nCodec ID                                 : 40\nDuration                                 : 1h 42mn\nSource duration                          : 1h 42mn\nBit rate mode                            : Variable\nBit rate                                 : 126 Kbps\nMaximum bit rate                         : 301 Kbps\nChannel count                            : 2 channels\nChannel positions                        : Front: L R\nSampling rate                            : 44.1 KHz\nCompression mode                         : Lossy\nStream size                              : 92.3 MiB (16%)\nSource stream size                       : 92.3 MiB (16%)\nLanguage                                 : English\n_________________________________________________________\n\nSummary:\nAfter being captured for attempting to assassinate the leader of the Hidden Lightning Village (the Raikage) and killing Jonin from the Hidden Mist and Rock Villages, Naruto is imprisoned in Hozuukijo, a criminal containment facility also known as: Blood Prison. The warden of the facility, Muui, uses the ultimate imprisonment jutsu to steal the power and abilities from its prisoners. In the Blood Prison, something is targeting Naruto's life. The battle to prove his innocence and uncover the truth has begun for Naruto and his friends.\n\n\nFor updates/requests:\nTwitter - @p7tricktorrent\nFacebook - /p7tricktorrent\nTPB - /user/p7trick/\nKAT - /user/iPirate7\n_________________________________________________________\n\nSEED!\n\nshare ratio:\n&quot;Scumbag = 0.1:1\nLeecher = 0.999:1\nMinimum = 1:1\nGood = 3:1\nGreat = 5:1\nAwesome = 10:1\n1337 = 100:1&quot;","torrent":{"xt":"urn:btih:e7fa83905bafa7cabf0dac5e57cc204033cc84e7","amp;dn":"Naruto+Shippuden+Movie+-+Blood+Prison+%5BXillia%5D","amp;tr":["udp%3A%2F%2Ftracker.openbittorrent.com%3A80","udp%3A%2F%2Fopen.demonii.com%3A1337","udp%3A%2F%2Ftracker.coppersurfer.tk%3A6969","udp%3A%2F%2Fexodus.desync.com%3A6969"],"infoHash":"e7fa83905bafa7cabf0dac5e57cc204033cc84e7","infoHashBuffer":{"type":"Buffer","data":[231,250,131,144,91,175,167,202,191,13,172,94,87,204,32,64,51,204,132,231]},"announce":[],"urlList":[]}}